<?xml version="1.0" standalone="no"?>
<!DOCTYPE svg PUBLIC "-//W3C//DTD SVG 1.1//EN" "http://www.w3.org/Graphics/SVG/1.1/DTD/svg11.dtd" >
<svg xmlns="http://www.w3.org/2000/svg">
<metadata></metadata>
<defs>
<font id="high_tideregular" horiz-adv-x="1603" >
<font-face units-per-em="2048" ascent="1536" descent="-512" />
<missing-glyph horiz-adv-x="622" />
<glyph horiz-adv-x="0" />
<glyph horiz-adv-x="682" />
<glyph unicode=" "  horiz-adv-x="622" />
<glyph unicode="&#x09;" horiz-adv-x="622" />
<glyph unicode="&#xa0;" horiz-adv-x="622" />
<glyph unicode="!" horiz-adv-x="495" d="M162 68q0 42 28 68t70 26q44 0 73 -26t29 -68q0 -41 -29.5 -68t-72.5 -27q-42 0 -70 27t-28 68zM176 1434h168l-8 -1133h-150z" />
<glyph unicode="&#x22;" horiz-adv-x="741" d="M154 977v457h153l-20 -457h-133zM446 977v457h152l-20 -457h-132z" />
<glyph unicode="$" horiz-adv-x="1046" d="M121 72l41 149q152 -80 305 -82v545q-166 60 -253.5 151.5t-90.5 231.5q-5 145 89.5 250t254.5 133v172h121v-164q38 -1 75.5 -7t64.5 -13t56 -17.5t45 -17.5t35 -16.5l21 -10.5l-62 -143q-96 67 -235 67v-497q61 -28 107.5 -54t97 -64.5t84 -80t55.5 -99t24 -122.5 q2 -158 -92 -262t-276 -131v-150h-121v142h-4q-221 0 -342 90zM287 1077q3 -134 180 -223v430q-81 -25 -132 -79.5t-48 -127.5zM588 152q95 23 151.5 82t55.5 147q-1 81 -52 138.5t-155 111.5v-479z" />
<glyph unicode="&#x26;" horiz-adv-x="1296" d="M111 422q0 148 77.5 246.5t217.5 144.5q-97 30 -150 105.5t-53 179.5q0 73 24 134t65.5 103.5t98 71.5t122.5 43t138 14q122 0 218.5 -37.5t150.5 -107.5l-123 -98q-34 51 -102.5 78.5t-145.5 27.5q-53 0 -102.5 -13t-92.5 -39t-69.5 -72t-26.5 -105q0 -119 86 -175.5 t242 -56.5v-133q-51 0 -78 -2q-72 -6 -130.5 -26t-105 -55.5t-72.5 -92.5t-26 -131q0 -102 49.5 -174.5t128.5 -106.5t179 -34q149 0 237 94t88 260v401h297v-135h-153v-268q0 -225 -121.5 -359.5t-347.5 -134.5q-234 0 -377 128.5t-143 324.5z" />
<glyph unicode="'" horiz-adv-x="452" d="M154 977v457h155l-20 -457h-135z" />
<glyph unicode="(" horiz-adv-x="628" d="M96 578q-1 210 43 398.5t140.5 349t232.5 249.5l57 -98q-101 -77 -172 -221.5t-103 -314.5t-31 -361t35 -362t104 -316t167 -224l-57 -98q-133 90 -229 250.5t-141 349t-46 398.5z" />
<glyph unicode=")" horiz-adv-x="628" d="M59 -322q96 80 165.5 225.5t104 316t35.5 361t-30 360.5t-102 314t-173 222l58 98q137 -87 233.5 -246.5t140 -347.5t42.5 -398.5t-46.5 -399.5t-141 -350.5t-228.5 -252.5z" />
<glyph unicode="," horiz-adv-x="471" d="M129 70q0 42 28.5 68t71.5 26q35 0 61.5 -19t37.5 -51q4 -27 2 -33q-2 -18 -13 -49l-61 -194h-100l45 159q-72 25 -72 93z" />
<glyph unicode="-" horiz-adv-x="944" d="M139 612v138h666v-138h-666z" />
<glyph unicode="." horiz-adv-x="460" d="M111 78q0 46 29.5 72t74.5 26q46 0 76.5 -26t30.5 -72q0 -41 -31 -68.5t-76 -27.5q-43 0 -73.5 27.5t-30.5 68.5z" />
<glyph unicode="/" horiz-adv-x="950" d="M51 2l727 1499l125 -67l-733 -1497z" />
<glyph unicode="0" horiz-adv-x="1220" d="M106 729q0 239 56 401q63 163 162 238q54 40 122 56t170 16q101 0 185 -36.5t149.5 -110.5t106.5 -196t51 -284q3 -70 3.5 -147t-14 -163.5t-37 -163.5t-66.5 -147.5t-103 -115.5q-100 -74 -275 -74q-117 0 -206 36.5t-146 99t-93 156.5t-50.5 199t-14.5 236zM307 695 q0 -74 1 -112t8 -100.5t21.5 -103t43.5 -88.5t72 -88l438 835q-18 57 -33 88t-41 60q-83 108 -219 108q-133 0 -201 -92q-90 -147 -90 -473v-34zM653 147q104 27 164 111q90 118 90 381z" />
<glyph unicode="1" horiz-adv-x="536" d="M14 1251v181h199h164v-1432h-182v1251h-17h-164z" />
<glyph unicode="2" horiz-adv-x="1073" d="M111 2v125l143 147q59 47 111.5 99.5t112.5 117.5t83 89l-432 704q11 7 50.5 30.5t47.5 28t39.5 21.5t42 20.5t37.5 14.5t43.5 13t43.5 7.5t53.5 6.5t58.5 1q105 0 186 -33t129.5 -89.5t73 -126.5t24.5 -148t-22 -154.5t-58 -143.5t-99.5 -146.5t-128 -148t-161.5 -163.5 l-124 -110h630v-162h-884zM365 1231l305 -506q110 137 110 270q0 74 -39 141.5t-98 107.5t-135 40t-143 -53z" />
<glyph unicode="3" horiz-adv-x="1116" d="M66 254l145 72q53 -80 128.5 -121t162.5 -41q138 0 241 96.5t103 231.5q0 290 -363 325l-127 -55l-73 145l508 291v74h-725v162h725h182v-162v-182l-273 -146q151 -54 230.5 -170.5t79.5 -281.5q0 -134 -70 -248t-187 -179t-251 -65q-138 0 -253.5 66t-182.5 188z" />
<glyph unicode="4" horiz-adv-x="1003" d="M0 403v125l649 902h199v-1027v-397h-182v397h-666zM199 547h143l324 485v215q-51 -116 -125 -215zM541 547h125v198z" />
<glyph unicode="5" horiz-adv-x="894" d="M4 31l90 166l309 563q-110 18 -163 18q-49 0 -120.5 -5t-94.5 -5l-2 664h835v-146h-637v-362h127q206 0 330 -74q217 -143 217 -363q0 -207 -160.5 -349t-402.5 -142q-150 0 -213.5 6t-114.5 29zM313 160q156 0 260.5 82t104.5 227q0 131 -92 201z" />
<glyph unicode="6" horiz-adv-x="1177" d="M100 680q0 403 160 592q134 162 377 162q172 0 283.5 -94t146.5 -267h-197q-19 52 -37.5 86t-47 66.5t-69.5 48.5t-95 16q-85 0 -166.5 -65t-120.5 -152q-55 -113 -55 -321q129 180 358 180q197 0 321 -127q125 -125 125 -322q0 -126 -58 -236t-165 -178.5t-239 -68.5 q-116 0 -207 36t-149 97t-96 149t-53.5 185.5t-15.5 212.5zM315 483q0 -73 14 -130t58 -103l268 520q-155 18 -245.5 -56t-94.5 -231zM567 143q79 0 135.5 18.5t112.5 71.5q41 41 65.5 104t24.5 130q0 105 -69 213z" />
<glyph unicode="7" horiz-adv-x="997" d="M74 1212v218h903v-218l-578 -1210h-180l559 1210h-704z" />
<glyph unicode="8" horiz-adv-x="1101" d="M100 395q0 209 191 346q-172 119 -172 295q0 168 124 283t308 115q182 0 308 -115.5t126 -282.5q0 -175 -174 -295q190 -136 190 -346q0 -82 -37 -156.5t-98 -127.5t-143.5 -84t-171.5 -31q-186 0 -318.5 116t-132.5 283zM256 395q0 -105 83.5 -174t211.5 -69t211.5 69 t83.5 174t-84.5 182.5t-210.5 77.5t-210.5 -77.5t-84.5 -182.5zM274 1036q0 -94 80 -159.5t197 -65.5t196.5 65.5t79.5 159.5q0 103 -79.5 172.5t-196.5 69.5t-197 -69.5t-80 -172.5zM463 395q0 38 25 62t63 24q41 0 63.5 -23.5t22.5 -62.5q0 -30 -23 -49.5t-63 -19.5 q-38 0 -63 20t-25 49z" />
<glyph unicode="9" horiz-adv-x="1183" d="M98 969q0 120 54 231q28 66 66.5 108t94.5 72q100 54 250 54q237 0 377 -144q143 -168 143 -536q0 -405 -161 -590q-131 -162 -375 -162q-169 0 -287 90q-63 63 -97.5 121t-45.5 147h178q40 -111 98.5 -163t169.5 -52q177 0 287 215q53 98 53 322q-86 -86 -175.5 -132 t-199.5 -46q-180 0 -305 125q-66 65 -95.5 147t-29.5 193zM276 969q0 -68 16.5 -112t57.5 -85l250 518q-143 29 -250 -78q-41 -56 -57.5 -109t-16.5 -134zM528 664q340 0 340 305q0 53 -20 122.5t-51 108.5z" />
<glyph unicode="?" horiz-adv-x="1044" d="M92 1167q38 137 149.5 206t266.5 69q184 0 303 -103.5t119 -287.5q0 -64 -21 -119t-54.5 -95.5t-73.5 -80t-79.5 -83t-71.5 -93t-50 -120.5t-15 -157h-153q-2 100 17 180.5t50 132t69 94.5t76.5 78t70 71.5t51.5 87t20 112.5q0 100 -74.5 166t-181.5 71q-99 5 -177 -43.5 t-102 -142.5zM391 70q0 42 29.5 68t73.5 26q43 0 71.5 -26t28.5 -68t-28.5 -69.5t-71.5 -27.5t-73 27.5t-30 69.5z" />
<glyph unicode="@" horiz-adv-x="1679" d="M106 719q18 226 127 404.5t284.5 277t387.5 98.5q327 0 506.5 -211t147.5 -563q-10 -125 -55 -237t-124 -186.5t-174 -74.5q-72 0 -103 51.5t-22 137.5l4 30q-45 -102 -133 -157.5t-198 -57.5q-94 0 -167.5 40t-117 107.5t-62.5 155t-10 185.5q10 110 53.5 201 t107.5 152.5t148.5 97t174.5 39.5t187.5 -25t186.5 -92l-49 -607q-2 -42 -1.5 -74t14 -51.5t41.5 -19.5q46 -2 84.5 36t63 100t39.5 125.5t21 123.5q26 310 -127.5 493t-443.5 183q-281 0 -477 -189.5t-221 -492.5q-14 -157 18 -287t103.5 -215.5t170.5 -131.5t223 -42 t257 59l-8 -94q-122 -45 -239 -52t-215.5 22t-179.5 93.5t-134.5 157t-77.5 218.5t-11 272zM539 719q-11 -149 51.5 -247.5t193.5 -98.5q128 0 207.5 93.5t93.5 233.5l27 334q-81 31 -159 39.5t-149 -8.5t-126.5 -58.5t-92.5 -115t-46 -172.5z" />
<glyph unicode="A" horiz-adv-x="1388" d="M39 2l72 182l491 1250h215l526 -1432h-161h-961h-145h-37zM274 147h344l273 617l-182 524zM817 147h309l-143 381z" />
<glyph unicode="B" horiz-adv-x="1337" d="M152 0v856v580h528q128 0 272 -35q98 -50 158.5 -135.5t60.5 -192.5q0 -179 -200 -309q94 -21 200 -127q72 -113 72 -217q0 -139 -84 -246.5t-225 -155.5q-74 -18 -238 -18h-544zM332 344l129 328h-129v-328zM332 836h184l164 436h-348v-252v-184zM461 164h235 q63 0 121.5 14t110.5 42.5t83 80t31 119.5q0 73 -44.5 132.5t-118.5 84.5q-107 35 -236 35zM715 836q20 -3 39 -3q88 0 154 71q71 77 70 171q0 11 -1 23q-10 108 -117 139z" />
<glyph unicode="C" horiz-adv-x="1247" d="M68 770q9 142 51 257.5t106.5 192t148 129.5t174.5 74t186 21h4q93 0 179 -22q88 -23 166 -65.5t134 -99.5l-54 -53l-55 -53q-6 2 -16 11t-30.5 26t-43.5 33l-410 -1049q14 -12 54 -18q20 -3 45 -2.5t53 2.5q58 6 118 23t119 57.5t95 97.5l125 -90 q-89 -123 -197.5 -176.5t-243.5 -61.5q-20 -1 -41 -1q-84 0 -168 23q-104 29 -195.5 94t-161.5 156.5t-108 219.5q-34 113 -35 241q0 16 1 33zM215 782q0 -385 256 -540l403 1052q-74 19 -144 19q-86 0 -167 -29q-146 -53 -239 -186t-109 -316z" />
<glyph unicode="D" horiz-adv-x="1228" d="M143 -10v1442h420q148 0 238 -30.5t158.5 -107.5t134.5 -227q53 -171 53 -348q0 -123 -18 -226.5t-63 -200.5t-115 -163t-182 -104q-99 -34 -224 -34q-16 0 -33 1zM309 373l326 895h-72h-254v-895zM418 156h145q94 2 167.5 33.5t120 83t76.5 124.5t42 151.5t12 170.5 q0 158 -38.5 278t-141.5 213z" />
<glyph unicode="E" horiz-adv-x="1234" d="M152 -4v944h254l-254 182v312h1001v-164h-838v-53l363 -277h475v-162h-418l-219 -618h655v-164h-1019zM315 160l238 618h-238v-618z" />
<glyph unicode="F" horiz-adv-x="1204" d="M152 0v944h254l-254 182v308h1052v-162h-891v-55l383 -273h508v-164h-579l-312 -780h-161zM313 489l129 291h-129v-291z" />
<glyph unicode="G" horiz-adv-x="1355" d="M82 719q9 157 63 288.5t148.5 227.5t234 150.5t312.5 56.5q60 -5 119.5 -15t92 -18t81 -21t59.5 -16l-234 -633l267 2l-11 -641v-92l-393 -2q-171 0 -304 40t-249 147q-95 89 -136.5 215.5t-49.5 310.5zM266 719v-16q0 -163 80 -293q85 -135 223 -199l385 1065 q-52 6 -101 6q-84 0 -161 -17q-122 -27 -217 -94.5t-151 -183.5t-58 -268zM735 166q58 0 175.5 3t138.5 3l6 440h-170z" />
<glyph unicode="H" horiz-adv-x="1445" d="M152 4v1426h161v-408h817v408h162v-1426h-162v813h-509l-308 -813h-161zM313 532l103 306h-103v-306z" />
<glyph unicode="I" horiz-adv-x="524" d="M152 -4v1446h206v-1446h-206z" />
<glyph unicode="J" horiz-adv-x="966" d="M4 430l184 19q0 -89 15 -140.5t47 -85.5v-20l391 1026v41h-104v164h104h184v-1047v-20q0 -163 -110 -263q-117 -106 -301 -106q-206 0 -308 102q-59 59 -80.5 135.5t-21.5 194.5zM436 162q106 13 158 93q48 72 48 171q0 11 -1 23v227z" />
<glyph unicode="K" horiz-adv-x="1040" d="M152 2v1438h186v-903l315 903h217l-225 -596l307 -842h-204l-213 584l-197 -584h-186z" />
<glyph unicode="L" horiz-adv-x="1220" d="M152 -2v205v1229h184v-533l532 -696h353v-205h-1069zM336 203h266l-266 348v-348z" />
<glyph unicode="M" horiz-adv-x="1988" d="M70 2l59 178l479 1256h19h200l158 -439l180 439h219l537 -1434h-180h-379h-158h-975h-141h-18zM289 162h178h160h41l18 18l219 598l-59 160l-119 356zM827 162h179h137l-60 137l-98 260zM1065 778l238 -616h81h158h139l-41 137l-118 301l-119 338l-139 356z" />
<glyph unicode="N" horiz-adv-x="1433" d="M152 2v1425h98h80l772 -514v514h178v-1425h-178v713l-395 278l-377 -991h-178zM330 498l217 594l-217 139v-733z" />
<glyph unicode="O" d="M90 717q0 143 55.5 275.5t150.5 230.5t230 156.5t285 58.5q190 0 352 -99t256 -265t94 -357t-94 -357t-256 -265t-352 -99q-150 0 -285 58.5t-230 156.5t-150.5 230.5t-55.5 275.5zM266 717q0 -145 70.5 -270t196.5 -200t278 -75q143 0 265 75t191.5 200t69.5 270 t-69.5 270t-191.5 200t-265 75q-152 0 -278 -75t-196.5 -200t-70.5 -270zM653 717q0 63 43.5 110t114.5 47q59 0 108.5 -49.5t49.5 -107.5q0 -59 -49.5 -108.5t-108.5 -49.5q-70 0 -114 47.5t-44 110.5z" />
<glyph unicode="P" horiz-adv-x="1081" d="M152 -4v1431h358q94 0 175.5 -14t152.5 -45.5t121 -79.5t79 -118.5t29 -159.5q0 -197 -121 -318q-57 -57 -142.5 -89t-213.5 -50l-201 -557h-237zM350 395l39 140h-39v-140zM350 692h99l221 578h-140h-180v-578zM649 713q123 30 190.5 101.5t67.5 174.5q0 57 -23.5 113.5 t-56.5 87.5z" />
<glyph unicode="Q" horiz-adv-x="1626" d="M92 707q0 152 55.5 286.5t152 231t231 152t286.5 55.5q194 0 356 -94.5t256.5 -261.5t94.5 -369q0 -130 -52.5 -256.5t-144.5 -235.5l158 -176h-236l-59 59q-194 -98 -373 -98q-202 0 -369 94.5t-261.5 256.5t-94.5 356zM268 707q0 -146 72 -267.5t198 -192.5t279 -71 q133 0 256 60l-667 841q-63 -75 -100.5 -172t-37.5 -198zM543 1178l667 -826q138 141 138 355q0 153 -71 279t-192.5 197.5t-267.5 71.5q-166 0 -274 -77z" />
<glyph unicode="R" horiz-adv-x="1148" d="M152 -2v1434h358q94 0 175.5 -14.5t152.5 -47t121 -80.5t79 -119t29 -159q0 -197 -121 -318q-83 -89 -237 -119l260 -577h-201l-197 477l-182 -477h-237zM352 395l37 140h-37v-140zM352 694h99l219 578h-140h-178v-578zM647 713q124 31 192 103.5t68 176.5 q0 56 -23 110.5t-55 88.5z" />
<glyph unicode="S" horiz-adv-x="1046" d="M96 98l39 138q156 -80 334 -80q133 0 214 66t81 171q0 98 -60.5 155t-214.5 120q-177 62 -275.5 155.5t-98.5 233.5q0 164 132.5 269.5t338.5 105.5h137q10 -3 43.5 -12.5t43.5 -12.5t31.5 -10t34.5 -12.5t25 -12.5l-158 -411l-77 -179q152 -75 222 -159.5t70 -210.5 q0 -83 -33 -157t-95.5 -131t-160.5 -90.5t-220 -33.5q-103 0 -197.5 26.5t-155.5 71.5zM311 1077q0 -152 197 -233l158 430q-23 18 -101 18q-121 0 -187.5 -66t-66.5 -149z" />
<glyph unicode="T" horiz-adv-x="1284" d="M33 1057l338 100l-338 100l59 160l479 -139v158h160v-158l459 139l59 -160l-338 -100l338 -100l-59 -160l-459 139v-1036h-160v1057l-479 -160z" />
<glyph unicode="U" horiz-adv-x="1314" d="M131 596v838h199v-838q0 -335 198 -438l459 1255l6 21h54h137v-818q0 -160 -38.5 -279.5t-110.5 -192.5t-168.5 -108.5t-217.5 -35.5q-109 0 -199.5 32.5t-163.5 101t-114 186.5t-41 276zM727 141q129 29 205 142t76 313v338z" />
<glyph unicode="V" horiz-adv-x="1376" d="M41 1436h158h983h137h18l-75 -199l-474 -1237h-217zM256 1278l94 -236l182 -493l158 -391l432 1120h-139h-528h-199z" />
<glyph unicode="W" horiz-adv-x="1964" d="M66 1427h176h376h158h965h137h20l-59 -178l-473 -1261h-18l-187 -2l-12 20l-156 416l-178 -434l-211 -2l-8 20zM303 1270l156 -434l119 -336l137 -355l198 514l-237 611h-80h-156h-137zM834 1270l59 -140l100 -256l156 396h-178h-137zM1071 659l59 -159l119 -355 l432 1125h-176h-157h-45l-15 -41z" />
<glyph unicode="X" horiz-adv-x="1443" d="M61 -4l514 985l-237 455h197l157 -277l158 277h178l-237 -455l38 -78l277 533h199h18l-393 -729l393 -711h-217l-277 532l-276 -532h-215l393 711l-39 77l-434 -788h-197z" />
<glyph unicode="Y" horiz-adv-x="1265" d="M33 1442h139h907h140h20l-514 -789v-653h-217v653zM250 1323l59 -98l178 -277l138 -217l376 592h-77h-496h-178z" />
<glyph unicode="Z" horiz-adv-x="1265" d="M125 -2v96l369 543h-273v154h213l-252 485v18v136h987v-117l-368 -522h368v-154h-483l-309 -485h792v-154h-1044zM395 1276l213 -467l310 467h-523z" />
<glyph unicode="`" horiz-adv-x="395" d="M41 1382v15l147 59l154 -270v-15h-135z" />
<glyph unicode="a" horiz-adv-x="1388" d="M39 2l72 182l491 1250h215l526 -1432h-161h-961h-145h-37zM274 147h344l273 617l-182 524zM817 147h309l-143 381z" />
<glyph unicode="b" horiz-adv-x="1337" d="M152 0v856v580h528q128 0 272 -35q98 -50 158.5 -135.5t60.5 -192.5q0 -179 -200 -309q94 -21 200 -127q72 -113 72 -217q0 -139 -84 -246.5t-225 -155.5q-74 -18 -238 -18h-544zM332 344l129 328h-129v-328zM332 836h184l164 436h-348v-252v-184zM461 164h235 q63 0 121.5 14t110.5 42.5t83 80t31 119.5q0 73 -44.5 132.5t-118.5 84.5q-107 35 -236 35zM715 836q20 -3 39 -3q88 0 154 71q71 77 70 171q0 11 -1 23q-10 108 -117 139z" />
<glyph unicode="c" horiz-adv-x="1247" d="M68 770q9 142 51 257.5t106.5 192t148 129.5t174.5 74t186 21h4q93 0 179 -22q88 -23 166 -65.5t134 -99.5l-54 -53l-55 -53q-6 2 -16 11t-30.5 26t-43.5 33l-410 -1049q14 -12 54 -18q20 -3 45 -2.5t53 2.5q58 6 118 23t119 57.5t95 97.5l125 -90 q-89 -123 -197.5 -176.5t-243.5 -61.5q-20 -1 -41 -1q-84 0 -168 23q-104 29 -195.5 94t-161.5 156.5t-108 219.5q-34 113 -35 241q0 16 1 33zM215 782q0 -385 256 -540l403 1052q-74 19 -144 19q-86 0 -167 -29q-146 -53 -239 -186t-109 -316z" />
<glyph unicode="d" horiz-adv-x="1228" d="M143 -10v1442h420q148 0 238 -30.5t158.5 -107.5t134.5 -227q53 -171 53 -348q0 -123 -18 -226.5t-63 -200.5t-115 -163t-182 -104q-99 -34 -224 -34q-16 0 -33 1zM309 373l326 895h-72h-254v-895zM418 156h145q94 2 167.5 33.5t120 83t76.5 124.5t42 151.5t12 170.5 q0 158 -38.5 278t-141.5 213z" />
<glyph unicode="e" horiz-adv-x="1234" d="M152 -4v944h254l-254 182v312h1001v-164h-838v-53l363 -277h475v-162h-418l-219 -618h655v-164h-1019zM315 160l238 618h-238v-618z" />
<glyph unicode="f" horiz-adv-x="1204" d="M152 0v944h254l-254 182v308h1052v-162h-891v-55l383 -273h508v-164h-579l-312 -780h-161zM313 489l129 291h-129v-291z" />
<glyph unicode="g" horiz-adv-x="1355" d="M82 719q9 157 63 288.5t148.5 227.5t234 150.5t312.5 56.5q60 -5 119.5 -15t92 -18t81 -21t59.5 -16l-234 -633l267 2l-11 -641v-92l-393 -2q-171 0 -304 40t-249 147q-95 89 -136.5 215.5t-49.5 310.5zM266 719v-16q0 -163 80 -293q85 -135 223 -199l385 1065 q-52 6 -101 6q-84 0 -161 -17q-122 -27 -217 -94.5t-151 -183.5t-58 -268zM735 166q58 0 175.5 3t138.5 3l6 440h-170z" />
<glyph unicode="h" horiz-adv-x="1445" d="M152 4v1426h161v-408h817v408h162v-1426h-162v813h-509l-308 -813h-161zM313 532l103 306h-103v-306z" />
<glyph unicode="i" horiz-adv-x="524" d="M152 -4v1446h206v-1446h-206z" />
<glyph unicode="j" horiz-adv-x="966" d="M4 430l184 19q0 -89 15 -140.5t47 -85.5v-20l391 1026v41h-104v164h104h184v-1047v-20q0 -163 -110 -263q-117 -106 -301 -106q-206 0 -308 102q-59 59 -80.5 135.5t-21.5 194.5zM436 162q106 13 158 93q48 72 48 171q0 11 -1 23v227z" />
<glyph unicode="k" horiz-adv-x="1040" d="M152 2v1438h186v-903l315 903h217l-225 -596l307 -842h-204l-213 584l-197 -584h-186z" />
<glyph unicode="l" horiz-adv-x="1220" d="M152 -2v205v1229h184v-533l532 -696h353v-205h-1069zM336 203h266l-266 348v-348z" />
<glyph unicode="m" horiz-adv-x="1988" d="M70 2l59 178l479 1256h19h200l158 -439l180 439h219l537 -1434h-180h-379h-158h-975h-141h-18zM289 162h178h160h41l18 18l219 598l-59 160l-119 356zM827 162h179h137l-60 137l-98 260zM1065 778l238 -616h81h158h139l-41 137l-118 301l-119 338l-139 356z" />
<glyph unicode="n" horiz-adv-x="1433" d="M152 2v1425h98h80l772 -514v514h178v-1425h-178v713l-395 278l-377 -991h-178zM330 498l217 594l-217 139v-733z" />
<glyph unicode="o" d="M90 717q0 143 55.5 275.5t150.5 230.5t230 156.5t285 58.5q190 0 352 -99t256 -265t94 -357t-94 -357t-256 -265t-352 -99q-150 0 -285 58.5t-230 156.5t-150.5 230.5t-55.5 275.5zM266 717q0 -145 70.5 -270t196.5 -200t278 -75q143 0 265 75t191.5 200t69.5 270 t-69.5 270t-191.5 200t-265 75q-152 0 -278 -75t-196.5 -200t-70.5 -270zM653 717q0 63 43.5 110t114.5 47q59 0 108.5 -49.5t49.5 -107.5q0 -59 -49.5 -108.5t-108.5 -49.5q-70 0 -114 47.5t-44 110.5z" />
<glyph unicode="p" horiz-adv-x="1081" d="M152 -4v1431h358q94 0 175.5 -14t152.5 -45.5t121 -79.5t79 -118.5t29 -159.5q0 -197 -121 -318q-57 -57 -142.5 -89t-213.5 -50l-201 -557h-237zM350 395l39 140h-39v-140zM350 692h99l221 578h-140h-180v-578zM649 713q123 30 190.5 101.5t67.5 174.5q0 57 -23.5 113.5 t-56.5 87.5z" />
<glyph unicode="q" horiz-adv-x="1626" d="M92 707q0 152 55.5 286.5t152 231t231 152t286.5 55.5q194 0 356 -94.5t256.5 -261.5t94.5 -369q0 -130 -52.5 -256.5t-144.5 -235.5l158 -176h-236l-59 59q-194 -98 -373 -98q-202 0 -369 94.5t-261.5 256.5t-94.5 356zM268 707q0 -146 72 -267.5t198 -192.5t279 -71 q133 0 256 60l-667 841q-63 -75 -100.5 -172t-37.5 -198zM543 1178l667 -826q138 141 138 355q0 153 -71 279t-192.5 197.5t-267.5 71.5q-166 0 -274 -77z" />
<glyph unicode="r" horiz-adv-x="1148" d="M152 -2v1434h358q94 0 175.5 -14.5t152.5 -47t121 -80.5t79 -119t29 -159q0 -197 -121 -318q-83 -89 -237 -119l260 -577h-201l-197 477l-182 -477h-237zM352 395l37 140h-37v-140zM352 694h99l219 578h-140h-178v-578zM647 713q124 31 192 103.5t68 176.5 q0 56 -23 110.5t-55 88.5z" />
<glyph unicode="s" horiz-adv-x="1046" d="M96 98l39 138q156 -80 334 -80q133 0 214 66t81 171q0 98 -60.5 155t-214.5 120q-177 62 -275.5 155.5t-98.5 233.5q0 164 132.5 269.5t338.5 105.5h137q10 -3 43.5 -12.5t43.5 -12.5t31.5 -10t34.5 -12.5t25 -12.5l-158 -411l-77 -179q152 -75 222 -159.5t70 -210.5 q0 -83 -33 -157t-95.5 -131t-160.5 -90.5t-220 -33.5q-103 0 -197.5 26.5t-155.5 71.5zM311 1077q0 -152 197 -233l158 430q-23 18 -101 18q-121 0 -187.5 -66t-66.5 -149z" />
<glyph unicode="t" horiz-adv-x="1284" d="M33 1057l338 100l-338 100l59 160l479 -139v158h160v-158l459 139l59 -160l-338 -100l338 -100l-59 -160l-459 139v-1036h-160v1057l-479 -160z" />
<glyph unicode="u" horiz-adv-x="1314" d="M131 596v838h199v-838q0 -335 198 -438l459 1255l6 21h54h137v-818q0 -160 -38.5 -279.5t-110.5 -192.5t-168.5 -108.5t-217.5 -35.5q-109 0 -199.5 32.5t-163.5 101t-114 186.5t-41 276zM727 141q129 29 205 142t76 313v338z" />
<glyph unicode="v" horiz-adv-x="1376" d="M41 1436h158h983h137h18l-75 -199l-474 -1237h-217zM256 1278l94 -236l182 -493l158 -391l432 1120h-139h-528h-199z" />
<glyph unicode="w" horiz-adv-x="1964" d="M66 1427h176h376h158h965h137h20l-59 -178l-473 -1261h-18l-187 -2l-12 20l-156 416l-178 -434l-211 -2l-8 20zM303 1270l156 -434l119 -336l137 -355l198 514l-237 611h-80h-156h-137zM834 1270l59 -140l100 -256l156 396h-178h-137zM1071 659l59 -159l119 -355 l432 1125h-176h-157h-45l-15 -41z" />
<glyph unicode="x" horiz-adv-x="1443" d="M61 -4l514 985l-237 455h197l157 -277l158 277h178l-237 -455l38 -78l277 533h199h18l-393 -729l393 -711h-217l-277 532l-276 -532h-215l393 711l-39 77l-434 -788h-197z" />
<glyph unicode="y" horiz-adv-x="1265" d="M33 1442h139h907h140h20l-514 -789v-653h-217v653zM250 1323l59 -98l178 -277l138 -217l376 592h-77h-496h-178z" />
<glyph unicode="z" horiz-adv-x="1212" d="M88 -2v96l369 543h-273v154h213l-252 485v18v136h988v-117l-369 -522h369v-154h-484l-309 -485h793v-154h-1045zM358 1276l213 -467l310 467h-523z" />
<glyph unicode="&#xa8;" horiz-adv-x="870" d="M135 1358q0 42 29.5 68t71.5 26q44 0 73 -26t29 -68q0 -41 -29.5 -66.5t-72.5 -25.5q-42 0 -71.5 26t-29.5 66zM559 1358q0 42 28.5 68t71.5 26q42 0 71.5 -26t29.5 -68q0 -40 -29.5 -66t-71.5 -26q-43 0 -71.5 25.5t-28.5 66.5z" />
<glyph unicode="&#xad;" horiz-adv-x="944" d="M139 612v138h666v-138h-666z" />
<glyph unicode="&#xb4;" horiz-adv-x="370" d="M29 1171v15l153 270l148 -59v-15l-166 -211h-135z" />
<glyph unicode="&#xb8;" horiz-adv-x="503" d="M31 -399l43 80q44 -25 96.5 -35.5t99 3.5t60.5 56q15 47 -13 82t-74 48.5t-87 8.5l47 179h121l-33 -129q98 -4 144.5 -69.5t21.5 -150.5q-26 -77 -104.5 -110t-167 -21t-154.5 58z" />
<glyph unicode="&#xc0;" horiz-adv-x="1386" d="M39 2h37h145h961h161l-526 1432h-215l-491 -1250zM274 147l435 1141l182 -524l-273 -617h-344zM485 1753v14l148 60l153 -271v-14h-135zM817 147l166 381l143 -381h-309z" />
<glyph unicode="&#xc1;" horiz-adv-x="1386" d="M39 2l72 182l491 1250h215l526 -1432h-161h-961h-145h-37zM274 147h344l273 617l-182 524zM641 1540v14l154 271l147 -60v-14l-166 -211h-135zM817 147h309l-143 381z" />
<glyph unicode="&#xc2;" horiz-adv-x="1386" d="M39 2h37h145h961h161l-526 1432h-215l-491 -1250zM274 147l435 1141l182 -524l-273 -617h-344zM362 1522v16l273 258h153l271 -260v-14h-146l-200 178l-203 -178h-148zM817 147l166 381l143 -381h-309z" />
<glyph unicode="&#xc3;" horiz-adv-x="1386" d="M39 2h37h145h961h161l-526 1432h-215l-491 -1250zM274 147l435 1141l182 -524l-273 -617h-344zM389 1593q55 114 146.5 143.5t209.5 -36.5q32 -22 59 -31.5t53 -7t49.5 21.5t43.5 56q13 -6 45 -22.5t49 -24.5q-45 -111 -137 -144.5t-202 29.5q-35 22 -64.5 32t-58 8.5 t-53.5 -20t-46 -55.5zM817 147l166 381l143 -381h-309z" />
<glyph unicode="&#xc4;" horiz-adv-x="1386" d="M39 2h37h145h961h161l-526 1432h-215l-491 -1250zM274 147l435 1141l182 -524l-273 -617h-344zM397 1614q0 42 29.5 68t71.5 26q44 0 73 -26t29 -68q0 -41 -29.5 -66.5t-72.5 -25.5q-42 0 -71.5 26t-29.5 66zM817 147l166 381l143 -381h-309zM821 1614q0 42 28.5 68 t72.5 26q42 0 71 -26t29 -68q0 -40 -29 -66t-71 -26q-43 0 -72 25.5t-29 66.5z" />
<glyph unicode="&#xc5;" horiz-adv-x="1388" d="M39 2l72 182l477 1213q-109 57 -109 184q0 52 20 93.5t52 67t73.5 39.5t85 14t85 -14t73.5 -39.5t52 -67t20 -93.5q0 -126 -111 -184l514 -1395h-1304zM274 147h344l273 617l-182 524zM582 1581q0 -32 14 -57.5t36.5 -38.5t50 -19t55 0t50 19t36.5 38.5t14 57.5t-14 57.5 t-36.5 38.5t-50 19t-55 0t-50 -19t-36.5 -38.5t-14 -57.5zM817 147h309l-143 381z" />
<glyph unicode="&#xc6;" horiz-adv-x="1699" d="M25 0l725 1434h813v-164h-592v-596h551v-139h-197l-174 -375h430v-160h-1556zM291 160h201l315 575v477zM655 160h152v286zM971 160h28l175 375h-203v-375z" />
<glyph unicode="&#xc7;" horiz-adv-x="1343" d="M74 770q9 142 51 257.5t106.5 192t148 129.5t174.5 74t186 21.5t183 -22.5t166 -65.5t134 -99.5l-54 -53l-55 -53q-6 2 -16 11t-30.5 26t-43.5 33l-410 -1049q14 -12 54.5 -17.5t98 0t117.5 22.5t119 57.5t95 97.5l125 -90q-90 -118 -210 -179t-259 -61l-35 -129 q98 -4 145.5 -69t22.5 -150q-26 -77 -105 -113t-168.5 -26t-154.5 55l43 90q44 -25 96.5 -35t99 4t60.5 56q22 68 -41 103t-133 26l53 198q-115 20 -217.5 81t-182 155t-124 229.5t-39.5 292.5zM221 782q0 -385 256 -540l404 1052q-126 35 -240.5 9t-203.5 -93t-146.5 -179 t-69.5 -249z" />
<glyph unicode="&#xc8;" horiz-adv-x="1261" d="M152 -4h1019v164h-655l219 618h418v162h-475l-363 277v53h838v164h-1001v-312l254 -182h-254v-944zM315 160v618h238zM453 1755v14l147 60l154 -270v-15h-136z" />
<glyph unicode="&#xc9;" horiz-adv-x="1259" d="M152 -4v944h254l-254 182v312h1001v-164h-838v-53l363 -277h475v-162h-418l-219 -618h655v-164h-1019zM315 160l238 618h-238v-618zM575 1550v15l154 270l148 -59v-15l-166 -211h-136z" />
<glyph unicode="&#xca;" horiz-adv-x="1255" d="M152 -4h1019v164h-655l219 618h418v162h-475l-363 277v53h838v164h-1001v-312l254 -182h-254v-944zM311 1554v17l273 258h153l271 -260v-15h-146l-200 179l-203 -179h-148zM315 160v618h238z" />
<glyph unicode="&#xcb;" horiz-adv-x="1263" d="M152 -4h1019v164h-655l219 618h418v162h-475l-363 277v53h838v164h-1001v-312l254 -182h-254v-944zM315 160v618h238zM360 1651q0 42 29.5 68t71.5 26q44 0 73 -26t29 -68q0 -41 -29.5 -66.5t-72.5 -25.5q-42 0 -71.5 26t-29.5 66zM784 1651q0 42 28.5 68t72.5 26 q42 0 71 -26t29 -68q0 -40 -29 -66t-71 -26q-43 0 -72 25.5t-29 66.5z" />
<glyph unicode="&#xcc;" horiz-adv-x="524" d="M33 1759v15l147 59l154 -270v-15h-135zM152 -4h206v1446h-206v-1446z" />
<glyph unicode="&#xcd;" horiz-adv-x="524" d="M152 -4v1446h206v-1446h-206zM182 1544v15l154 270l147 -60v-14l-166 -211h-135z" />
<glyph unicode="&#xce;" horiz-adv-x="524" d="M-53 1536v16l243 258h138l239 -260v-14h-129l-178 178l-182 -178h-131zM152 -4h206v1446h-206v-1446z" />
<glyph unicode="&#xcf;" horiz-adv-x="524" d="M-49 1640q0 42 29 68.5t71 26.5q44 0 73.5 -26.5t29.5 -68.5q0 -41 -29.5 -66.5t-73.5 -25.5q-42 0 -71 26t-29 66zM152 -4h206v1446h-206v-1446zM375 1640q0 42 28.5 68.5t71.5 26.5q42 0 71 -26.5t29 -68.5q0 -40 -29 -66t-71 -26q-43 0 -71.5 25.5t-28.5 66.5z" />
<glyph unicode="&#xd0;" horiz-adv-x="1300" d="M2 805v137h141v490h420q148 0 238 -30.5t158.5 -107.5t134.5 -227q53 -171 53 -348q0 -123 -18 -226.5t-63 -200.5t-115 -163t-182 -104t-257 -33l-369 -2v815h-141zM309 373l156 432h-156v-432zM309 942h207l119 326h-326v-326zM418 156h145q94 2 167.5 33.5t120 83 t76.5 124.5t42 151.5t12 170.5q0 158 -38.5 278t-141.5 213z" />
<glyph unicode="&#xd1;" horiz-adv-x="1433" d="M152 2h178l377 991l395 -278v-713h178v1425h-178v-514l-772 514h-80h-98v-1425zM330 498v733l217 -139zM414 1595q55 114 146.5 143.5t209.5 -36.5q32 -22 59 -31.5t53 -7t49.5 21.5t43.5 56q13 -6 45 -22.5t49 -24.5q-45 -111 -137.5 -144.5t-202.5 29.5q-35 22 -64 32 t-57.5 8.5t-53.5 -20t-46 -55.5z" />
<glyph unicode="&#xd2;" d="M90 717q0 -143 55.5 -275.5t150.5 -230.5t230 -156.5t285 -58.5q190 0 352 99t256 265t94 357t-94 357t-256 265t-352 99q-150 0 -285 -58.5t-230 -156.5t-150.5 -230.5t-55.5 -275.5zM266 717q0 145 70.5 270t196.5 200t278 75q143 0 265 -75t191.5 -200t69.5 -270 t-69.5 -270t-191.5 -200t-265 -75q-152 0 -278 75t-196.5 200t-70.5 270zM598 1778v14l147 59l154 -270v-14h-135zM653 717q0 -63 44 -110.5t114 -47.5q59 0 108.5 49.5t49.5 108.5q0 58 -49.5 107.5t-108.5 49.5q-71 0 -114.5 -47t-43.5 -110z" />
<glyph unicode="&#xd3;" d="M90 717q0 143 55.5 275.5t150.5 230.5t230 156.5t285 58.5q190 0 352 -99t256 -265t94 -357t-94 -357t-256 -265t-352 -99q-150 0 -285 58.5t-230 156.5t-150.5 230.5t-55.5 275.5zM266 717q0 -145 70.5 -270t196.5 -200t278 -75q143 0 265 75t191.5 200t69.5 270 t-69.5 270t-191.5 200t-265 75q-152 0 -278 -75t-196.5 -200t-70.5 -270zM653 717q0 63 43.5 110t114.5 47q59 0 108.5 -49.5t49.5 -107.5q0 -59 -49.5 -108.5t-108.5 -49.5q-70 0 -114 47.5t-44 110.5zM721 1575v14l153 271l148 -60v-14l-166 -211h-135z" />
<glyph unicode="&#xd4;" d="M90 717q0 -143 55.5 -275.5t150.5 -230.5t230 -156.5t285 -58.5q190 0 352 99t256 265t94 357t-94 357t-256 265t-352 99q-150 0 -285 -58.5t-230 -156.5t-150.5 -230.5t-55.5 -275.5zM266 717q0 145 70.5 270t196.5 200t278 75q143 0 265 -75t191.5 -200t69.5 -270 t-69.5 -270t-191.5 -200t-265 -75q-152 0 -278 75t-196.5 200t-70.5 270zM471 1550v17l272 258h154l270 -260v-15h-145l-201 179l-203 -179h-147zM653 717q0 -63 44 -110.5t114 -47.5q59 0 108.5 49.5t49.5 108.5q0 58 -49.5 107.5t-108.5 49.5q-71 0 -114.5 -47t-43.5 -110 z" />
<glyph unicode="&#xd5;" d="M90 717q0 -143 55.5 -275.5t150.5 -230.5t230 -156.5t285 -58.5q190 0 352 99t256 265t94 357t-94 357t-256 265t-352 99q-150 0 -285 -58.5t-230 -156.5t-150.5 -230.5t-55.5 -275.5zM266 717q0 145 70.5 270t196.5 200t278 75q143 0 265 -75t191.5 -200t69.5 -270 t-69.5 -270t-191.5 -200t-265 -75q-152 0 -278 75t-196.5 200t-70.5 270zM496 1640q55 114 146.5 143.5t209.5 -36.5q32 -22 59 -31.5t53 -7t49.5 21.5t43.5 56q13 -6 45 -22.5t49 -24.5q-45 -111 -137.5 -144.5t-202.5 29.5q-35 22 -64 32t-57.5 8.5t-53.5 -20t-46 -55.5z M653 717q0 -63 44 -110.5t114 -47.5q59 0 108.5 49.5t49.5 108.5q0 58 -49.5 107.5t-108.5 49.5q-71 0 -114.5 -47t-43.5 -110z" />
<glyph unicode="&#xd6;" d="M90 717q0 -143 55.5 -275.5t150.5 -230.5t230 -156.5t285 -58.5q190 0 352 99t256 265t94 357t-94 357t-256 265t-352 99q-150 0 -285 -58.5t-230 -156.5t-150.5 -230.5t-55.5 -275.5zM266 717q0 145 70.5 270t196.5 200t278 75q143 0 265 -75t191.5 -200t69.5 -270 t-69.5 -270t-191.5 -200t-265 -75q-152 0 -278 75t-196.5 200t-70.5 270zM502 1651q0 42 29 68t71 26q44 0 73.5 -26t29.5 -68q0 -41 -29.5 -66.5t-73.5 -25.5q-42 0 -71 26t-29 66zM653 717q0 -63 44 -110.5t114 -47.5q59 0 108.5 49.5t49.5 108.5q0 58 -49.5 107.5 t-108.5 49.5q-71 0 -114.5 -47t-43.5 -110zM926 1651q0 42 28.5 68t71.5 26q42 0 71 -26t29 -68q0 -40 -29 -66t-71 -26q-43 0 -71.5 25.5t-28.5 66.5z" />
<glyph unicode="&#xd8;" d="M70 717q0 147 57 282.5t154.5 236t235.5 160.5t292 60q171 0 326 -84l120 191l119 -70l-125 -195q130 -105 205.5 -258t75.5 -323q0 -146 -57.5 -282.5t-154 -237t-230 -160.5t-279.5 -60q-184 0 -346 84l-125 -196l-113 72l125 198q-131 104 -205.5 257.5t-74.5 324.5z M233 717q0 -129 54.5 -246t150.5 -197l224 351q-29 43 -29 92q0 63 43.5 110t114.5 47q10 0 26 -4l232 365q-114 57 -240 57q-120 0 -228 -46.5t-183.5 -125t-120 -184t-44.5 -219.5zM551 201q120 -60 258 -60q113 0 217 47t178 125t118 184t44 220q0 129 -55 245t-150 197 l-235 -371q22 -42 22 -71q0 -59 -49.5 -108.5t-107.5 -49.5h-13z" />
<glyph unicode="&#xd9;" horiz-adv-x="1314" d="M131 596q0 -158 41 -276t114 -186.5t163.5 -101t199.5 -32.5q121 0 217.5 35.5t168.5 108.5t110.5 192.5t38.5 279.5v818h-137h-54l-6 -21l-459 -1255q-198 103 -198 438v838h-199v-838zM461 1757v15l147 59l154 -270v-15h-135zM727 141l281 793v-338q0 -200 -76 -313 t-205 -142z" />
<glyph unicode="&#xda;" horiz-adv-x="1314" d="M131 596v838h199v-838q0 -335 198 -438l459 1255l6 21h54h137v-818q0 -160 -38.5 -279.5t-110.5 -192.5t-168.5 -108.5t-217.5 -35.5q-109 0 -199.5 32.5t-163.5 101t-114 186.5t-41 276zM553 1546v15l154 270l147 -59v-15l-166 -211h-135zM727 141q129 29 205 142 t76 313v338z" />
<glyph unicode="&#xdb;" horiz-adv-x="1314" d="M131 596q0 -158 41 -276t114 -186.5t163.5 -101t199.5 -32.5q121 0 217.5 35.5t168.5 108.5t110.5 192.5t38.5 279.5v818h-137h-54l-6 -21l-459 -1255q-198 103 -198 438v838h-199v-838zM326 1552v17l272 258h154l270 -260v-15h-145l-201 179l-203 -179h-147zM727 141 l281 793v-338q0 -200 -76 -313t-205 -142z" />
<glyph unicode="&#xdc;" horiz-adv-x="1314" d="M131 596q0 -158 41 -276t114 -186.5t163.5 -101t199.5 -32.5q121 0 217.5 35.5t168.5 108.5t110.5 192.5t38.5 279.5v818h-137h-54l-6 -21l-459 -1255q-198 103 -198 438v838h-199v-838zM344 1657q0 42 29 68t71 26q44 0 73.5 -26t29.5 -68q0 -41 -29.5 -66.5 t-73.5 -25.5q-42 0 -71 26t-29 66zM727 141l281 793v-338q0 -200 -76 -313t-205 -142zM768 1657q0 42 28.5 68t71.5 26q42 0 71.5 -26t29.5 -68q0 -40 -29.5 -66t-71.5 -26q-43 0 -71.5 25.5t-28.5 66.5z" />
<glyph unicode="&#xdd;" horiz-adv-x="1228" d="M33 1442h139h907h140h20l-514 -789v-653h-217v653zM250 1323l59 -98l178 -277l138 -217l376 592h-77h-496h-178zM539 1559v14l153 270l148 -59v-15l-166 -210h-135z" />
<glyph unicode="&#xde;" horiz-adv-x="1118" d="M152 0v1434h165v-246h215q117 0 212.5 -26t168 -78.5t112.5 -138.5t40 -200q0 -216 -136 -325t-384 -109l-144 -311h-249zM317 172l62 139h-62v-139zM317 463h127l244 551q-67 18 -158 18h-213v-569zM616 467q293 28 293 276q0 128 -75 197z" />
<glyph unicode="&#xe0;" horiz-adv-x="1386" d="M39 2h37h145h961h161l-526 1432h-215l-491 -1250zM274 147l435 1141l182 -524l-273 -617h-344zM485 1753v14l148 60l153 -271v-14h-135zM817 147l166 381l143 -381h-309z" />
<glyph unicode="&#xe1;" horiz-adv-x="1386" d="M39 2l72 182l491 1250h215l526 -1432h-161h-961h-145h-37zM274 147h344l273 617l-182 524zM641 1540v14l154 271l147 -60v-14l-166 -211h-135zM817 147h309l-143 381z" />
<glyph unicode="&#xe2;" horiz-adv-x="1386" d="M39 2h37h145h961h161l-526 1432h-215l-491 -1250zM274 147l435 1141l182 -524l-273 -617h-344zM362 1522v16l273 258h153l271 -260v-14h-146l-200 178l-203 -178h-148zM817 147l166 381l143 -381h-309z" />
<glyph unicode="&#xe3;" horiz-adv-x="1386" d="M39 2h37h145h961h161l-526 1432h-215l-491 -1250zM274 147l435 1141l182 -524l-273 -617h-344zM389 1593q55 114 146.5 143.5t209.5 -36.5q32 -22 59 -31.5t53 -7t49.5 21.5t43.5 56q13 -6 45 -22.5t49 -24.5q-45 -111 -137 -144.5t-202 29.5q-35 22 -64.5 32t-58 8.5 t-53.5 -20t-46 -55.5zM817 147l166 381l143 -381h-309z" />
<glyph unicode="&#xe4;" horiz-adv-x="1386" d="M39 2h37h145h961h161l-526 1432h-215l-491 -1250zM274 147l435 1141l182 -524l-273 -617h-344zM397 1614q0 42 29.5 68t71.5 26q44 0 73 -26t29 -68q0 -41 -29.5 -66.5t-72.5 -25.5q-42 0 -71.5 26t-29.5 66zM817 147l166 381l143 -381h-309zM821 1614q0 42 28.5 68 t72.5 26q42 0 71 -26t29 -68q0 -40 -29 -66t-71 -26q-43 0 -72 25.5t-29 66.5z" />
<glyph unicode="&#xe5;" horiz-adv-x="1388" d="M39 2l72 182l477 1213q-109 57 -109 184q0 52 20 93.5t52 67t73.5 39.5t85 14t85 -14t73.5 -39.5t52 -67t20 -93.5q0 -126 -111 -184l514 -1395h-1304zM274 147h344l273 617l-182 524zM582 1581q0 -32 14 -57.5t36.5 -38.5t50 -19t55 0t50 19t36.5 38.5t14 57.5t-14 57.5 t-36.5 38.5t-50 19t-55 0t-50 -19t-36.5 -38.5t-14 -57.5zM817 147h309l-143 381z" />
<glyph unicode="&#xe6;" horiz-adv-x="1699" d="M25 0l725 1434h813v-164h-592v-596h551v-139h-197l-174 -375h430v-160h-1556zM291 160h201l315 575v477zM655 160h152v286zM971 160h28l175 375h-203v-375z" />
<glyph unicode="&#xe7;" horiz-adv-x="1343" d="M74 770q9 142 51 257.5t106.5 192t148 129.5t174.5 74t186 21.5t183 -22.5t166 -65.5t134 -99.5l-54 -53l-55 -53q-6 2 -16 11t-30.5 26t-43.5 33l-410 -1049q14 -12 54.5 -17.5t98 0t117.5 22.5t119 57.5t95 97.5l125 -90q-90 -118 -210 -179t-259 -61l-35 -129 q98 -4 145.5 -69t22.5 -150q-26 -77 -105 -113t-168.5 -26t-154.5 55l43 90q44 -25 96.5 -35t99 4t60.5 56q22 68 -41 103t-133 26l53 198q-115 20 -217.5 81t-182 155t-124 229.5t-39.5 292.5zM221 782q0 -385 256 -540l404 1052q-126 35 -240.5 9t-203.5 -93t-146.5 -179 t-69.5 -249z" />
<glyph unicode="&#xe8;" horiz-adv-x="1261" d="M152 -4h1019v164h-655l219 618h418v162h-475l-363 277v53h838v164h-1001v-312l254 -182h-254v-944zM315 160v618h238zM453 1755v14l147 60l154 -270v-15h-136z" />
<glyph unicode="&#xe9;" horiz-adv-x="1259" d="M152 -4v944h254l-254 182v312h1001v-164h-838v-53l363 -277h475v-162h-418l-219 -618h655v-164h-1019zM315 160l238 618h-238v-618zM575 1550v15l154 270l148 -59v-15l-166 -211h-136z" />
<glyph unicode="&#xea;" horiz-adv-x="1255" d="M152 -4h1019v164h-655l219 618h418v162h-475l-363 277v53h838v164h-1001v-312l254 -182h-254v-944zM311 1554v17l273 258h153l271 -260v-15h-146l-200 179l-203 -179h-148zM315 160v618h238z" />
<glyph unicode="&#xeb;" horiz-adv-x="1263" d="M152 -4h1019v164h-655l219 618h418v162h-475l-363 277v53h838v164h-1001v-312l254 -182h-254v-944zM315 160v618h238zM360 1651q0 42 29.5 68t71.5 26q44 0 73 -26t29 -68q0 -41 -29.5 -66.5t-72.5 -25.5q-42 0 -71.5 26t-29.5 66zM784 1651q0 42 28.5 68t72.5 26 q42 0 71 -26t29 -68q0 -40 -29 -66t-71 -26q-43 0 -72 25.5t-29 66.5z" />
<glyph unicode="&#xec;" horiz-adv-x="524" d="M33 1759v15l147 59l154 -270v-15h-135zM152 -4h206v1446h-206v-1446z" />
<glyph unicode="&#xed;" horiz-adv-x="524" d="M152 -4v1446h206v-1446h-206zM182 1544v15l154 270l147 -60v-14l-166 -211h-135z" />
<glyph unicode="&#xee;" horiz-adv-x="524" d="M-53 1536v16l243 258h138l239 -260v-14h-129l-178 178l-182 -178h-131zM152 -4h206v1446h-206v-1446z" />
<glyph unicode="&#xef;" horiz-adv-x="524" d="M-49 1640q0 42 29 68.5t71 26.5q44 0 73.5 -26.5t29.5 -68.5q0 -41 -29.5 -66.5t-73.5 -25.5q-42 0 -71 26t-29 66zM152 -4h206v1446h-206v-1446zM375 1640q0 42 28.5 68.5t71.5 26.5q42 0 71 -26.5t29 -68.5q0 -40 -29 -66t-71 -26q-43 0 -71.5 25.5t-28.5 66.5z" />
<glyph unicode="&#xf0;" horiz-adv-x="1300" d="M2 805v137h141v490h420q148 0 238 -30.5t158.5 -107.5t134.5 -227q53 -171 53 -348q0 -123 -18 -226.5t-63 -200.5t-115 -163t-182 -104t-257 -33l-369 -2v815h-141zM309 373l156 432h-156v-432zM309 942h207l119 326h-326v-326zM418 156h145q94 2 167.5 33.5t120 83 t76.5 124.5t42 151.5t12 170.5q0 158 -38.5 278t-141.5 213z" />
<glyph unicode="&#xf1;" horiz-adv-x="1433" d="M152 2h178l377 991l395 -278v-713h178v1425h-178v-514l-772 514h-80h-98v-1425zM330 498v733l217 -139zM414 1595q55 114 146.5 143.5t209.5 -36.5q32 -22 59 -31.5t53 -7t49.5 21.5t43.5 56q13 -6 45 -22.5t49 -24.5q-45 -111 -137.5 -144.5t-202.5 29.5q-35 22 -64 32 t-57.5 8.5t-53.5 -20t-46 -55.5z" />
<glyph unicode="&#xf2;" d="M90 717q0 -143 55.5 -275.5t150.5 -230.5t230 -156.5t285 -58.5q190 0 352 99t256 265t94 357t-94 357t-256 265t-352 99q-150 0 -285 -58.5t-230 -156.5t-150.5 -230.5t-55.5 -275.5zM266 717q0 145 70.5 270t196.5 200t278 75q143 0 265 -75t191.5 -200t69.5 -270 t-69.5 -270t-191.5 -200t-265 -75q-152 0 -278 75t-196.5 200t-70.5 270zM598 1778v14l147 59l154 -270v-14h-135zM653 717q0 -63 44 -110.5t114 -47.5q59 0 108.5 49.5t49.5 108.5q0 58 -49.5 107.5t-108.5 49.5q-71 0 -114.5 -47t-43.5 -110z" />
<glyph unicode="&#xf3;" d="M90 717q0 143 55.5 275.5t150.5 230.5t230 156.5t285 58.5q190 0 352 -99t256 -265t94 -357t-94 -357t-256 -265t-352 -99q-150 0 -285 58.5t-230 156.5t-150.5 230.5t-55.5 275.5zM266 717q0 -145 70.5 -270t196.5 -200t278 -75q143 0 265 75t191.5 200t69.5 270 t-69.5 270t-191.5 200t-265 75q-152 0 -278 -75t-196.5 -200t-70.5 -270zM653 717q0 63 43.5 110t114.5 47q59 0 108.5 -49.5t49.5 -107.5q0 -59 -49.5 -108.5t-108.5 -49.5q-70 0 -114 47.5t-44 110.5zM721 1575v14l153 271l148 -60v-14l-166 -211h-135z" />
<glyph unicode="&#xf4;" d="M90 717q0 -143 55.5 -275.5t150.5 -230.5t230 -156.5t285 -58.5q190 0 352 99t256 265t94 357t-94 357t-256 265t-352 99q-150 0 -285 -58.5t-230 -156.5t-150.5 -230.5t-55.5 -275.5zM266 717q0 145 70.5 270t196.5 200t278 75q143 0 265 -75t191.5 -200t69.5 -270 t-69.5 -270t-191.5 -200t-265 -75q-152 0 -278 75t-196.5 200t-70.5 270zM471 1550v17l272 258h154l270 -260v-15h-145l-201 179l-203 -179h-147zM653 717q0 -63 44 -110.5t114 -47.5q59 0 108.5 49.5t49.5 108.5q0 58 -49.5 107.5t-108.5 49.5q-71 0 -114.5 -47t-43.5 -110 z" />
<glyph unicode="&#xf5;" d="M90 717q0 -143 55.5 -275.5t150.5 -230.5t230 -156.5t285 -58.5q190 0 352 99t256 265t94 357t-94 357t-256 265t-352 99q-150 0 -285 -58.5t-230 -156.5t-150.5 -230.5t-55.5 -275.5zM266 717q0 145 70.5 270t196.5 200t278 75q143 0 265 -75t191.5 -200t69.5 -270 t-69.5 -270t-191.5 -200t-265 -75q-152 0 -278 75t-196.5 200t-70.5 270zM496 1640q55 114 146.5 143.5t209.5 -36.5q32 -22 59 -31.5t53 -7t49.5 21.5t43.5 56q13 -6 45 -22.5t49 -24.5q-45 -111 -137.5 -144.5t-202.5 29.5q-35 22 -64 32t-57.5 8.5t-53.5 -20t-46 -55.5z M653 717q0 -63 44 -110.5t114 -47.5q59 0 108.5 49.5t49.5 108.5q0 58 -49.5 107.5t-108.5 49.5q-71 0 -114.5 -47t-43.5 -110z" />
<glyph unicode="&#xf6;" d="M90 717q0 -143 55.5 -275.5t150.5 -230.5t230 -156.5t285 -58.5q190 0 352 99t256 265t94 357t-94 357t-256 265t-352 99q-150 0 -285 -58.5t-230 -156.5t-150.5 -230.5t-55.5 -275.5zM266 717q0 145 70.5 270t196.5 200t278 75q143 0 265 -75t191.5 -200t69.5 -270 t-69.5 -270t-191.5 -200t-265 -75q-152 0 -278 75t-196.5 200t-70.5 270zM502 1651q0 42 29 68t71 26q44 0 73.5 -26t29.5 -68q0 -41 -29.5 -66.5t-73.5 -25.5q-42 0 -71 26t-29 66zM653 717q0 -63 44 -110.5t114 -47.5q59 0 108.5 49.5t49.5 108.5q0 58 -49.5 107.5 t-108.5 49.5q-71 0 -114.5 -47t-43.5 -110zM926 1651q0 42 28.5 68t71.5 26q42 0 71 -26t29 -68q0 -40 -29 -66t-71 -26q-43 0 -71.5 25.5t-28.5 66.5z" />
<glyph unicode="&#xf8;" d="M70 717q0 147 57 282.5t154.5 236t235.5 160.5t292 60q171 0 326 -84l120 191l119 -70l-125 -195q130 -105 205.5 -258t75.5 -323q0 -146 -57.5 -282.5t-154 -237t-230 -160.5t-279.5 -60q-184 0 -346 84l-125 -196l-113 72l125 198q-131 104 -205.5 257.5t-74.5 324.5z M233 717q0 -129 54.5 -246t150.5 -197l224 351q-29 43 -29 92q0 63 43.5 110t114.5 47q10 0 26 -4l232 365q-114 57 -240 57q-120 0 -228 -46.5t-183.5 -125t-120 -184t-44.5 -219.5zM551 201q120 -60 258 -60q113 0 217 47t178 125t118 184t44 220q0 129 -55 245t-150 197 l-235 -371q22 -42 22 -71q0 -59 -49.5 -108.5t-107.5 -49.5h-13z" />
<glyph unicode="&#xf9;" horiz-adv-x="1314" d="M131 596q0 -158 41 -276t114 -186.5t163.5 -101t199.5 -32.5q121 0 217.5 35.5t168.5 108.5t110.5 192.5t38.5 279.5v818h-137h-54l-6 -21l-459 -1255q-198 103 -198 438v838h-199v-838zM461 1757v15l147 59l154 -270v-15h-135zM727 141l281 793v-338q0 -200 -76 -313 t-205 -142z" />
<glyph unicode="&#xfa;" horiz-adv-x="1314" d="M131 596v838h199v-838q0 -335 198 -438l459 1255l6 21h54h137v-818q0 -160 -38.5 -279.5t-110.5 -192.5t-168.5 -108.5t-217.5 -35.5q-109 0 -199.5 32.5t-163.5 101t-114 186.5t-41 276zM553 1546v15l154 270l147 -59v-15l-166 -211h-135zM727 141q129 29 205 142 t76 313v338z" />
<glyph unicode="&#xfb;" horiz-adv-x="1314" d="M131 596q0 -158 41 -276t114 -186.5t163.5 -101t199.5 -32.5q121 0 217.5 35.5t168.5 108.5t110.5 192.5t38.5 279.5v818h-137h-54l-6 -21l-459 -1255q-198 103 -198 438v838h-199v-838zM326 1552v17l272 258h154l270 -260v-15h-145l-201 179l-203 -179h-147zM727 141 l281 793v-338q0 -200 -76 -313t-205 -142z" />
<glyph unicode="&#xfc;" horiz-adv-x="1314" d="M131 596q0 -158 41 -276t114 -186.5t163.5 -101t199.5 -32.5q121 0 217.5 35.5t168.5 108.5t110.5 192.5t38.5 279.5v818h-137h-54l-6 -21l-459 -1255q-198 103 -198 438v838h-199v-838zM344 1657q0 42 29 68t71 26q44 0 73.5 -26t29.5 -68q0 -41 -29.5 -66.5 t-73.5 -25.5q-42 0 -71 26t-29 66zM727 141l281 793v-338q0 -200 -76 -313t-205 -142zM768 1657q0 42 28.5 68t71.5 26q42 0 71.5 -26t29.5 -68q0 -40 -29.5 -66t-71.5 -26q-43 0 -71.5 25.5t-28.5 66.5z" />
<glyph unicode="&#xfd;" horiz-adv-x="1228" d="M33 1442h139h907h140h20l-514 -789v-653h-217v653zM250 1323l59 -98l178 -277l138 -217l376 592h-77h-496h-178zM539 1559v14l153 270l148 -59v-15l-166 -210h-135z" />
<glyph unicode="&#xfe;" horiz-adv-x="1118" d="M152 0v1434h165v-246h215q117 0 212.5 -26t168 -78.5t112.5 -138.5t40 -200q0 -216 -136 -325t-384 -109l-144 -311h-249zM317 172l62 139h-62v-139zM317 463h127l244 551q-67 18 -158 18h-213v-569zM616 467q293 28 293 276q0 128 -75 197z" />
<glyph unicode="&#xff;" horiz-adv-x="1243" d="M33 1442l475 -789v-653h217v653l514 789h-20h-140h-907h-139zM250 1323h178h496h77l-376 -592l-138 217l-178 277zM334 1642q0 42 29 68.5t71 26.5q44 0 73.5 -26.5t29.5 -68.5q0 -41 -29.5 -66.5t-73.5 -25.5q-42 0 -71 26t-29 66zM758 1642q0 42 28.5 68.5t71.5 26.5 q42 0 71 -26.5t29 -68.5q0 -40 -29 -66t-71 -26q-43 0 -71.5 25.5t-28.5 66.5z" />
<glyph unicode="&#x152;" horiz-adv-x="1746" d="M76 717q0 211 82 378t238 264t362 97q88 0 174 -22h717v-154h-383l180 -391h162v-148h-152l-211 -587h422v-154h-735q-90 -23 -174 -23q-206 0 -362 96t-238 263t-82 381zM244 717q0 -265 136.5 -427.5t377.5 -162.5q81 0 151 20v1139q-80 23 -151 23 q-241 0 -377.5 -163.5t-136.5 -428.5zM1063 154h33l211 587h-244v-587zM1063 889h227l-182 391h-45v-391z" />
<glyph unicode="&#x153;" horiz-adv-x="1746" d="M76 717q0 211 82 378t238 264t362 97q88 0 174 -22h717v-154h-383l180 -391h162v-148h-152l-211 -587h422v-154h-735q-90 -23 -174 -23q-206 0 -362 96t-238 263t-82 381zM244 717q0 -265 136.5 -427.5t377.5 -162.5q81 0 151 20v1139q-80 23 -151 23 q-241 0 -377.5 -163.5t-136.5 -428.5zM1063 154h33l211 587h-244v-587zM1063 889h227l-182 391h-45v-391z" />
<glyph unicode="&#x178;" horiz-adv-x="1243" d="M33 1442l475 -789v-653h217v653l514 789h-20h-140h-907h-139zM250 1323h178h496h77l-376 -592l-138 217l-178 277zM334 1642q0 42 29 68.5t71 26.5q44 0 73.5 -26.5t29.5 -68.5q0 -41 -29.5 -66.5t-73.5 -25.5q-42 0 -71 26t-29 66zM758 1642q0 42 28.5 68.5t71.5 26.5 q42 0 71 -26.5t29 -68.5q0 -40 -29 -66t-71 -26q-43 0 -71.5 25.5t-28.5 66.5z" />
<glyph unicode="&#x2c6;" horiz-adv-x="819" d="M72 1161v17l272 258h154l270 -260v-15h-145l-201 178l-203 -178h-147z" />
<glyph unicode="&#x2dc;" horiz-adv-x="776" d="M61 1292q55 114 147 143.5t210 -36.5q32 -22 59 -31.5t53 -7t49.5 21.5t43.5 56q13 -6 45 -22.5t49 -24.5q-45 -111 -137.5 -144.5t-202.5 29.5q-35 22 -64 32t-57.5 8.5t-53.5 -20t-46 -55.5z" />
<glyph unicode="&#x2000;" horiz-adv-x="930" />
<glyph unicode="&#x2001;" horiz-adv-x="1860" />
<glyph unicode="&#x2002;" horiz-adv-x="930" />
<glyph unicode="&#x2003;" horiz-adv-x="1860" />
<glyph unicode="&#x2004;" horiz-adv-x="620" />
<glyph unicode="&#x2005;" horiz-adv-x="465" />
<glyph unicode="&#x2006;" horiz-adv-x="310" />
<glyph unicode="&#x2007;" horiz-adv-x="310" />
<glyph unicode="&#x2008;" horiz-adv-x="232" />
<glyph unicode="&#x2009;" horiz-adv-x="372" />
<glyph unicode="&#x200a;" horiz-adv-x="103" />
<glyph unicode="&#x2010;" horiz-adv-x="944" d="M139 612v138h666v-138h-666z" />
<glyph unicode="&#x2011;" horiz-adv-x="944" d="M139 612v138h666v-138h-666z" />
<glyph unicode="&#x2012;" horiz-adv-x="944" d="M139 612v138h666v-138h-666z" />
<glyph unicode="&#x2013;" horiz-adv-x="1302" d="M139 612v138h1024v-138h-1024z" />
<glyph unicode="&#x2014;" horiz-adv-x="2326" d="M139 612v138h2048v-138h-2048z" />
<glyph unicode="&#x202f;" horiz-adv-x="372" />
<glyph unicode="&#x205f;" horiz-adv-x="465" />
<glyph unicode="&#x20ac;" horiz-adv-x="1052" d="M0 535v120h106v64v57h-106v121h117q12 96 35.5 176t65.5 151.5t100 121t140.5 78t184.5 28.5q198 0 332 -121l-90 -121q-82 88 -242 88q-305 0 -364 -401h430l-43 -121h-398v-57v-64h363l-39 -120h-311q58 -396 362 -396q179 0 277 107l92 -111q-136 -149 -369 -149 q-125 0 -221 42t-157 119t-97 172.5t-51 215.5h-117z" />
<glyph unicode="&#x25fc;" horiz-adv-x="1433" d="M0 0v1434h1434v-1434h-1434z" />
</font>
</defs>
</svg>
